<svg xmlns="http://www.w3.org/2000/svg" width="512" height="512" viewBox="0 0 512 512" version="1.1">
	<path d="M 147 99.351 L 147 114.703 135.420 115.273 C 125.703 115.752, 122.986 116.261, 118.529 118.442 C 112.252 121.513, 105.674 128.304, 102.661 134.824 L 100.500 139.500 100.500 272.500 L 100.500 405.500 103.163 410.546 C 106.562 416.984, 112.814 423.237, 118.805 426.187 L 123.500 428.500 254.674 428.764 L 385.848 429.029 391.615 426.871 C 398.209 424.404, 405.485 417.775, 409.159 410.889 L 411.500 406.500 411.764 274.052 C 412.065 123.500, 412.782 136.199, 403.415 126.081 C 395.983 118.055, 390.657 115.885, 376.759 115.227 L 366 114.717 365.995 109.108 C 365.992 106.024, 365.699 99.112, 365.344 93.750 L 364.698 84 349.966 84 C 332.480 84, 334.034 82.271, 334.014 101.750 L 334 115 256 115 L 178 115 178 99.500 L 178 84 162.500 84 L 147 84 147 99.351 M 139.026 194.679 C 135.465 194.914, 132.210 195.645, 131.791 196.304 C 131.373 196.962, 131.024 242.114, 131.015 296.643 C 131.001 386.135, 131.154 395.845, 132.582 396.393 C 134.679 397.198, 373.849 397.180, 377.875 396.375 L 381 395.750 381 295.375 L 381 195 300.750 194.966 C 256.613 194.948, 203.625 194.779, 183 194.592 C 162.375 194.404, 142.587 194.443, 139.026 194.679" stroke="none" fill="black" fill-rule="evenodd"/>
</svg>